<svg width="553" height="476" viewBox="0 0 553 476" fill="none" xmlns="http://www.w3.org/2000/svg">
    <path
        d="M544.749 1.88037H43.5346C40.1133 1.88037 37.3398 4.65387 37.3398 8.07516V395.531C37.3398 398.952 40.1133 401.726 43.5346 401.726H544.749C548.17 401.726 550.944 398.952 550.944 395.531V8.07516C550.944 4.65387 548.17 1.88037 544.749 1.88037Z"
        fill="#426967" stroke="#090F1B" stroke-width="3.37897" />
    <path d="M428.738 124.086H467.033C471.388 124.086 474.918 127.616 474.918 131.971V400.599H428.738V124.086Z"
        fill="black" fill-opacity="0.04" />
    <path
        d="M446.761 100.996H8.62057C5.19928 100.996 2.42578 103.77 2.42578 107.191V467.615C2.42578 471.036 5.19928 473.81 8.62057 473.81H446.761C450.182 473.81 452.956 471.036 452.956 467.615V107.191C452.956 103.77 450.182 100.996 446.761 100.996Z"
        fill="#FCFCFD" stroke="#090F1B" stroke-width="3.37897" />
    <path
        d="M286.821 133.661H34.5242C32.347 133.661 30.582 135.426 30.582 137.603V443.963C30.582 446.14 32.347 447.905 34.5242 447.905H286.821C288.998 447.905 290.763 446.14 290.763 443.963V137.603C290.763 135.426 288.998 133.661 286.821 133.661Z"
        fill="#426967" stroke="#090F1B" stroke-width="3.37897" />
    <path
        d="M103.353 268.403C74.4246 255.522 55.9917 231.966 44.8688 206.945C33.7389 181.909 29.9835 155.519 30.3526 137.23C30.3926 135.252 32.0455 133.661 34.1478 133.661H286.821C288.998 133.661 290.763 135.426 290.763 137.603V400.146C290.502 399.307 290.233 398.43 289.951 397.516C289.529 396.145 289.082 394.69 288.6 393.152C286.261 385.677 283.206 376.478 278.861 366.688C270.174 347.113 256.294 325.089 232.551 309.641C220.766 301.973 211.545 297.674 203.116 295.022C194.717 292.381 187.163 291.398 178.819 290.311L178.771 290.304L178.72 290.297C162.081 288.13 141.698 285.476 103.353 268.403Z"
        fill="#FCFCFD" stroke="#090F1B" stroke-width="3.37897" />
    <path
        d="M336.377 133.661H310.471C308.294 133.661 306.529 135.426 306.529 137.603V443.963C306.529 446.14 308.294 447.905 310.471 447.905H336.377C338.554 447.905 340.319 446.14 340.319 443.963V137.603C340.319 135.426 338.554 133.661 336.377 133.661Z"
        fill="#FCFCFD" stroke="#090F1B" stroke-width="3.37897" />
    <path
        d="M299.211 419.042C299.211 418.141 300.217 417.605 300.965 418.107L306.722 421.969C307.414 422.433 307.38 423.461 306.659 423.879L300.902 427.214C300.151 427.65 299.211 427.108 299.211 426.24V419.042Z"
        fill="#090F1B" />
    <path
        d="M348.77 419.042C348.77 418.141 347.764 417.605 347.016 418.107L341.259 421.969C340.567 422.433 340.601 423.461 341.322 423.879L347.079 427.214C347.829 427.65 348.77 427.108 348.77 426.24V419.042Z"
        fill="#090F1B" />
    <path
        d="M423.106 200.114H360.032C357.855 200.114 356.09 201.879 356.09 204.056V249.109C356.09 251.286 357.855 253.051 360.032 253.051H423.106C425.283 253.051 427.048 251.286 427.048 249.109V204.056C427.048 201.879 425.283 200.114 423.106 200.114Z"
        fill="#878A8F" stroke="#090F1B" stroke-width="3.37897" />
    <path
        d="M423.106 133.661H360.032C357.855 133.661 356.09 135.426 356.09 137.603V182.656C356.09 184.833 357.855 186.598 360.032 186.598H423.106C425.283 186.598 427.048 184.833 427.048 182.656V137.603C427.048 135.426 425.283 133.661 423.106 133.661Z"
        fill="#1F6461" stroke="#090F1B" stroke-width="3.37897" />
    <path
        d="M62.1193 34.5437C65.8516 34.5437 68.8772 31.5181 68.8772 27.7858C68.8772 24.0535 65.8516 21.0278 62.1193 21.0278C58.387 21.0278 55.3613 24.0535 55.3613 27.7858C55.3613 31.5181 58.387 34.5437 62.1193 34.5437Z"
        fill="#FCFCFD" stroke="#090F1B" stroke-width="3.37897" />
    <path
        d="M85.7716 34.5437C89.5039 34.5437 92.5296 31.5181 92.5296 27.7858C92.5296 24.0535 89.5039 21.0278 85.7716 21.0278C82.0393 21.0278 79.0137 24.0535 79.0137 27.7858C79.0137 31.5181 82.0393 34.5437 85.7716 34.5437Z"
        fill="#FCFCFD" stroke="#090F1B" stroke-width="3.37897" />
    <path
        d="M109.426 34.5437C113.158 34.5437 116.184 31.5181 116.184 27.7858C116.184 24.0535 113.158 21.0278 109.426 21.0278C105.694 21.0278 102.668 24.0535 102.668 27.7858C102.668 31.5181 105.694 34.5437 109.426 34.5437Z"
        fill="#FCFCFD" stroke="#090F1B" stroke-width="3.37897" />
    <path d="M36.7754 53.1274H492.937" stroke="#090F1B" stroke-width="3.37897" />
    <path
        d="M362.848 285.714C366.58 285.714 369.606 282.688 369.606 278.956C369.606 275.223 366.58 272.198 362.848 272.198C359.115 272.198 356.09 275.223 356.09 278.956C356.09 282.688 359.115 285.714 362.848 285.714Z"
        fill="#1F6461" stroke="#090F1B" stroke-width="3.37897" />
    <path d="M380.305 279.519H427.047" stroke="#090F1B" stroke-width="3.37897" stroke-linecap="round" />
    <path
        d="M362.848 443.399C366.58 443.399 369.606 440.374 369.606 436.641C369.606 432.909 366.58 429.883 362.848 429.883C359.115 429.883 356.09 432.909 356.09 436.641C356.09 440.374 359.115 443.399 362.848 443.399Z"
        fill="#FCFCFD" stroke="#090F1B" stroke-width="3.37897" />
    <path d="M380.305 437.205H427.047" stroke="#090F1B" stroke-width="3.37897" stroke-linecap="round" />
    <path
        d="M362.848 411.863C366.58 411.863 369.606 408.837 369.606 405.105C369.606 401.372 366.58 398.347 362.848 398.347C359.115 398.347 356.09 401.372 356.09 405.105C356.09 408.837 359.115 411.863 362.848 411.863Z"
        fill="#FCFCFD" stroke="#090F1B" stroke-width="3.37897" />
    <path d="M380.305 405.667H427.047" stroke="#090F1B" stroke-width="3.37897" stroke-linecap="round" />
    <path
        d="M362.848 380.325C366.58 380.325 369.606 377.299 369.606 373.567C369.606 369.835 366.58 366.809 362.848 366.809C359.115 366.809 356.09 369.835 356.09 373.567C356.09 377.299 359.115 380.325 362.848 380.325Z"
        fill="#FCFCFD" stroke="#090F1B" stroke-width="3.37897" />
    <path d="M380.305 374.131H427.047" stroke="#090F1B" stroke-width="3.37897" stroke-linecap="round" />
    <path
        d="M362.848 348.789C366.58 348.789 369.606 345.763 369.606 342.031C369.606 338.299 366.58 335.273 362.848 335.273C359.115 335.273 356.09 338.299 356.09 342.031C356.09 345.763 359.115 348.789 362.848 348.789Z"
        fill="#FCFCFD" stroke="#090F1B" stroke-width="3.37897" />
    <path d="M380.305 342.593H427.047" stroke="#090F1B" stroke-width="3.37897" stroke-linecap="round" />
    <path
        d="M191.083 385.958C195.126 385.958 198.404 382.68 198.404 378.637C198.404 374.594 195.126 371.316 191.083 371.316C187.039 371.316 183.762 374.594 183.762 378.637C183.762 382.68 187.039 385.958 191.083 385.958Z"
        fill="#FCFCFD" stroke="#090F1B" stroke-width="3.37897" />
    <path
        d="M362.848 317.251C366.58 317.251 369.606 314.226 369.606 310.493C369.606 306.761 366.58 303.735 362.848 303.735C359.115 303.735 356.09 306.761 356.09 310.493C356.09 314.226 359.115 317.251 362.848 317.251Z"
        fill="#FCFCFD" stroke="#090F1B" stroke-width="3.37897" />
    <path d="M380.305 311.057H427.047" stroke="#090F1B" stroke-width="3.37897" stroke-linecap="round" />
    <path d="M178.695 378.636H183.201" stroke="#090F1B" stroke-width="3.37897" stroke-linecap="round" />
    <path d="M198.969 378.636H203.474" stroke="#090F1B" stroke-width="3.37897" stroke-linecap="round" />
    <path d="M191.082 391.025V386.52" stroke="#090F1B" stroke-width="3.37897" stroke-linecap="round" />
    <path d="M191.082 369.625V365.12" stroke="#090F1B" stroke-width="3.37897" stroke-linecap="round" />
</svg>